<mxfile host="app.diagrams.net" modified="2024-06-28T16:07:05.077Z" agent="Mozilla/5.0 (Windows NT 10.0; Win64; x64) AppleWebKit/537.36 (KHTML, like Gecko) Chrome/126.0.0.0 Safari/537.36" etag="DUkC3wZ0TyiE3zywvMsv" version="24.6.4" type="device">
  <diagram id="C5RBs43oDa-KdzZeNtuy" name="Page-1">
    <mxGraphModel dx="1035" dy="555" grid="1" gridSize="10" guides="1" tooltips="1" connect="1" arrows="1" fold="1" page="1" pageScale="1" pageWidth="827" pageHeight="1169" math="0" shadow="0">
      <root>
        <mxCell id="WIyWlLk6GJQsqaUBKTNV-0" />
        <mxCell id="WIyWlLk6GJQsqaUBKTNV-1" parent="WIyWlLk6GJQsqaUBKTNV-0" />
        <mxCell id="v3ytf863q92ejtqnGKcO-5" style="edgeStyle=orthogonalEdgeStyle;rounded=0;orthogonalLoop=1;jettySize=auto;html=1;exitX=0.5;exitY=1;exitDx=0;exitDy=0;entryX=0.5;entryY=0;entryDx=0;entryDy=0;" edge="1" parent="WIyWlLk6GJQsqaUBKTNV-1" source="v3ytf863q92ejtqnGKcO-0" target="v3ytf863q92ejtqnGKcO-3">
          <mxGeometry relative="1" as="geometry" />
        </mxCell>
        <mxCell id="v3ytf863q92ejtqnGKcO-0" value="Input Data" style="shape=parallelogram;perimeter=parallelogramPerimeter;whiteSpace=wrap;html=1;fixedSize=1;" vertex="1" parent="WIyWlLk6GJQsqaUBKTNV-1">
          <mxGeometry x="225" y="140" width="120" height="60" as="geometry" />
        </mxCell>
        <mxCell id="v3ytf863q92ejtqnGKcO-2" style="edgeStyle=orthogonalEdgeStyle;rounded=0;orthogonalLoop=1;jettySize=auto;html=1;exitX=0.5;exitY=1;exitDx=0;exitDy=0;entryX=0.5;entryY=0;entryDx=0;entryDy=0;" edge="1" parent="WIyWlLk6GJQsqaUBKTNV-1" source="v3ytf863q92ejtqnGKcO-1" target="v3ytf863q92ejtqnGKcO-0">
          <mxGeometry relative="1" as="geometry" />
        </mxCell>
        <mxCell id="v3ytf863q92ejtqnGKcO-1" value="Start" style="ellipse;whiteSpace=wrap;html=1;aspect=fixed;" vertex="1" parent="WIyWlLk6GJQsqaUBKTNV-1">
          <mxGeometry x="260" y="60" width="50" height="50" as="geometry" />
        </mxCell>
        <mxCell id="v3ytf863q92ejtqnGKcO-11" style="edgeStyle=orthogonalEdgeStyle;rounded=0;orthogonalLoop=1;jettySize=auto;html=1;exitX=0.5;exitY=1;exitDx=0;exitDy=0;entryX=0.5;entryY=0;entryDx=0;entryDy=0;" edge="1" parent="WIyWlLk6GJQsqaUBKTNV-1" source="v3ytf863q92ejtqnGKcO-3" target="v3ytf863q92ejtqnGKcO-10">
          <mxGeometry relative="1" as="geometry" />
        </mxCell>
        <mxCell id="v3ytf863q92ejtqnGKcO-12" value="No" style="edgeLabel;html=1;align=center;verticalAlign=middle;resizable=0;points=[];" vertex="1" connectable="0" parent="v3ytf863q92ejtqnGKcO-11">
          <mxGeometry y="-1" relative="1" as="geometry">
            <mxPoint as="offset" />
          </mxGeometry>
        </mxCell>
        <mxCell id="v3ytf863q92ejtqnGKcO-14" style="edgeStyle=orthogonalEdgeStyle;rounded=0;orthogonalLoop=1;jettySize=auto;html=1;exitX=1;exitY=0.5;exitDx=0;exitDy=0;entryX=0;entryY=0.5;entryDx=0;entryDy=0;" edge="1" parent="WIyWlLk6GJQsqaUBKTNV-1" source="v3ytf863q92ejtqnGKcO-3" target="v3ytf863q92ejtqnGKcO-13">
          <mxGeometry relative="1" as="geometry" />
        </mxCell>
        <mxCell id="v3ytf863q92ejtqnGKcO-3" value="Nan" style="rhombus;whiteSpace=wrap;html=1;" vertex="1" parent="WIyWlLk6GJQsqaUBKTNV-1">
          <mxGeometry x="245" y="240" width="80" height="80" as="geometry" />
        </mxCell>
        <mxCell id="v3ytf863q92ejtqnGKcO-6" value="End" style="ellipse;whiteSpace=wrap;html=1;aspect=fixed;" vertex="1" parent="WIyWlLk6GJQsqaUBKTNV-1">
          <mxGeometry x="260" y="600" width="50" height="50" as="geometry" />
        </mxCell>
        <mxCell id="v3ytf863q92ejtqnGKcO-17" style="edgeStyle=orthogonalEdgeStyle;rounded=0;orthogonalLoop=1;jettySize=auto;html=1;exitX=0.5;exitY=1;exitDx=0;exitDy=0;entryX=0.5;entryY=0;entryDx=0;entryDy=0;" edge="1" parent="WIyWlLk6GJQsqaUBKTNV-1" source="v3ytf863q92ejtqnGKcO-10" target="v3ytf863q92ejtqnGKcO-16">
          <mxGeometry relative="1" as="geometry" />
        </mxCell>
        <mxCell id="v3ytf863q92ejtqnGKcO-10" value="Call Function TambahSaldo() from class BankAccount" style="rounded=0;whiteSpace=wrap;html=1;" vertex="1" parent="WIyWlLk6GJQsqaUBKTNV-1">
          <mxGeometry x="225" y="380" width="120" height="60" as="geometry" />
        </mxCell>
        <mxCell id="v3ytf863q92ejtqnGKcO-15" style="edgeStyle=orthogonalEdgeStyle;rounded=0;orthogonalLoop=1;jettySize=auto;html=1;exitX=0.5;exitY=1;exitDx=0;exitDy=0;entryX=1;entryY=0.5;entryDx=0;entryDy=0;" edge="1" parent="WIyWlLk6GJQsqaUBKTNV-1" source="v3ytf863q92ejtqnGKcO-13" target="v3ytf863q92ejtqnGKcO-6">
          <mxGeometry relative="1" as="geometry" />
        </mxCell>
        <mxCell id="v3ytf863q92ejtqnGKcO-13" value="Error &quot;Deposite Is Nan&quot;" style="shape=parallelogram;perimeter=parallelogramPerimeter;whiteSpace=wrap;html=1;fixedSize=1;" vertex="1" parent="WIyWlLk6GJQsqaUBKTNV-1">
          <mxGeometry x="410" y="250" width="120" height="60" as="geometry" />
        </mxCell>
        <mxCell id="v3ytf863q92ejtqnGKcO-18" style="edgeStyle=orthogonalEdgeStyle;rounded=0;orthogonalLoop=1;jettySize=auto;html=1;exitX=0.5;exitY=1;exitDx=0;exitDy=0;entryX=0.5;entryY=0;entryDx=0;entryDy=0;" edge="1" parent="WIyWlLk6GJQsqaUBKTNV-1" source="v3ytf863q92ejtqnGKcO-16" target="v3ytf863q92ejtqnGKcO-6">
          <mxGeometry relative="1" as="geometry" />
        </mxCell>
        <mxCell id="v3ytf863q92ejtqnGKcO-16" value="Output&amp;nbsp; Message" style="shape=parallelogram;perimeter=parallelogramPerimeter;whiteSpace=wrap;html=1;fixedSize=1;" vertex="1" parent="WIyWlLk6GJQsqaUBKTNV-1">
          <mxGeometry x="225" y="490" width="120" height="60" as="geometry" />
        </mxCell>
      </root>
    </mxGraphModel>
  </diagram>
</mxfile>
